<mxfile host="app.diagrams.net" modified="2023-10-26T04:10:05.459Z" agent="Mozilla/5.0 (Windows NT 10.0; Win64; x64) AppleWebKit/537.36 (KHTML, like Gecko) Chrome/118.0.0.0 Safari/537.36" etag="Joui1EsgvAZwGy4VDO0T" version="22.0.8" type="google">
  <diagram name="Page-1" id="35O0CooDgrK9135779rl">
    <mxGraphModel grid="1" page="1" gridSize="10" guides="1" tooltips="1" connect="1" arrows="1" fold="1" pageScale="1" pageWidth="827" pageHeight="1169" math="0" shadow="0">
      <root>
        <mxCell id="0" />
        <mxCell id="1" parent="0" />
        <mxCell id="DSIdTfia2GyBseEBT6hQ-1" value="start" style="ellipse;whiteSpace=wrap;html=1;" vertex="1" parent="1">
          <mxGeometry x="298" width="120" height="80" as="geometry" />
        </mxCell>
        <mxCell id="DSIdTfia2GyBseEBT6hQ-2" value="" style="endArrow=classic;html=1;rounded=0;exitX=0.5;exitY=1;exitDx=0;exitDy=0;entryX=0.5;entryY=0;entryDx=0;entryDy=0;" edge="1" parent="1" source="DSIdTfia2GyBseEBT6hQ-1" target="DSIdTfia2GyBseEBT6hQ-8">
          <mxGeometry width="50" height="50" relative="1" as="geometry">
            <mxPoint x="360" y="80" as="sourcePoint" />
            <mxPoint x="373" y="-190" as="targetPoint" />
          </mxGeometry>
        </mxCell>
        <mxCell id="DSIdTfia2GyBseEBT6hQ-8" value="Enter into library" style="rounded=0;whiteSpace=wrap;html=1;" vertex="1" parent="1">
          <mxGeometry x="292.5" y="140" width="135" height="60" as="geometry" />
        </mxCell>
        <mxCell id="DSIdTfia2GyBseEBT6hQ-15" value="Book Progress" style="rhombus;whiteSpace=wrap;html=1;" vertex="1" parent="1">
          <mxGeometry x="315" y="390" width="90" height="80" as="geometry" />
        </mxCell>
        <mxCell id="DSIdTfia2GyBseEBT6hQ-16" value="" style="endArrow=classic;html=1;rounded=0;exitX=0.5;exitY=1;exitDx=0;exitDy=0;" edge="1" parent="1" source="DSIdTfia2GyBseEBT6hQ-15">
          <mxGeometry width="50" height="50" relative="1" as="geometry">
            <mxPoint x="180" y="420" as="sourcePoint" />
            <mxPoint x="360" y="520" as="targetPoint" />
          </mxGeometry>
        </mxCell>
        <mxCell id="DSIdTfia2GyBseEBT6hQ-17" value="Taking the Book" style="rounded=0;whiteSpace=wrap;html=1;" vertex="1" parent="1">
          <mxGeometry x="295" y="520" width="130" height="60" as="geometry" />
        </mxCell>
        <mxCell id="DSIdTfia2GyBseEBT6hQ-19" value="" style="endArrow=classic;html=1;rounded=0;" edge="1" parent="1">
          <mxGeometry width="50" height="50" relative="1" as="geometry">
            <mxPoint x="400" y="430" as="sourcePoint" />
            <mxPoint x="530" y="430" as="targetPoint" />
          </mxGeometry>
        </mxCell>
        <mxCell id="DSIdTfia2GyBseEBT6hQ-21" value="Return the Book" style="rounded=0;whiteSpace=wrap;html=1;" vertex="1" parent="1">
          <mxGeometry x="530" y="395" width="130" height="70" as="geometry" />
        </mxCell>
        <mxCell id="DSIdTfia2GyBseEBT6hQ-22" value="" style="endArrow=classic;html=1;rounded=0;exitX=0.5;exitY=1;exitDx=0;exitDy=0;" edge="1" parent="1" source="DSIdTfia2GyBseEBT6hQ-21">
          <mxGeometry width="50" height="50" relative="1" as="geometry">
            <mxPoint x="430" y="640" as="sourcePoint" />
            <mxPoint x="595" y="520" as="targetPoint" />
          </mxGeometry>
        </mxCell>
        <mxCell id="DSIdTfia2GyBseEBT6hQ-24" value="Check&amp;nbsp;&lt;br&gt;For&lt;br&gt;Penality?" style="rhombus;whiteSpace=wrap;html=1;" vertex="1" parent="1">
          <mxGeometry x="547.5" y="520" width="95" height="90" as="geometry" />
        </mxCell>
        <mxCell id="DSIdTfia2GyBseEBT6hQ-25" value="" style="endArrow=classic;html=1;rounded=0;exitX=0.5;exitY=1;exitDx=0;exitDy=0;" edge="1" parent="1" source="DSIdTfia2GyBseEBT6hQ-24">
          <mxGeometry width="50" height="50" relative="1" as="geometry">
            <mxPoint x="620" y="640" as="sourcePoint" />
            <mxPoint x="595" y="670" as="targetPoint" />
          </mxGeometry>
        </mxCell>
        <mxCell id="DSIdTfia2GyBseEBT6hQ-26" value="No" style="text;html=1;align=center;verticalAlign=middle;resizable=0;points=[];autosize=1;strokeColor=none;fillColor=none;" vertex="1" parent="1">
          <mxGeometry x="602.5" y="630" width="40" height="30" as="geometry" />
        </mxCell>
        <mxCell id="DSIdTfia2GyBseEBT6hQ-27" value="Update the book returned&amp;nbsp;&lt;br&gt;in Register" style="rounded=0;whiteSpace=wrap;html=1;" vertex="1" parent="1">
          <mxGeometry x="540" y="670" width="120" height="60" as="geometry" />
        </mxCell>
        <mxCell id="DSIdTfia2GyBseEBT6hQ-32" value="Pay 100rs for Penality" style="rounded=0;whiteSpace=wrap;html=1;" vertex="1" parent="1">
          <mxGeometry x="880" y="535" width="120" height="65" as="geometry" />
        </mxCell>
        <mxCell id="DSIdTfia2GyBseEBT6hQ-33" value="" style="endArrow=classic;html=1;rounded=0;entryX=0;entryY=0.5;entryDx=0;entryDy=0;exitX=1;exitY=0.5;exitDx=0;exitDy=0;" edge="1" parent="1" source="DSIdTfia2GyBseEBT6hQ-24" target="DSIdTfia2GyBseEBT6hQ-32">
          <mxGeometry width="50" height="50" relative="1" as="geometry">
            <mxPoint x="650" y="560" as="sourcePoint" />
            <mxPoint x="700" y="510" as="targetPoint" />
          </mxGeometry>
        </mxCell>
        <mxCell id="DSIdTfia2GyBseEBT6hQ-34" value="" style="endArrow=none;html=1;rounded=0;" edge="1" parent="1">
          <mxGeometry width="50" height="50" relative="1" as="geometry">
            <mxPoint x="950" y="700" as="sourcePoint" />
            <mxPoint x="950" y="600" as="targetPoint" />
          </mxGeometry>
        </mxCell>
        <mxCell id="DSIdTfia2GyBseEBT6hQ-35" value="" style="endArrow=classic;html=1;rounded=0;entryX=1;entryY=0.5;entryDx=0;entryDy=0;" edge="1" parent="1" target="DSIdTfia2GyBseEBT6hQ-27">
          <mxGeometry width="50" height="50" relative="1" as="geometry">
            <mxPoint x="950" y="700" as="sourcePoint" />
            <mxPoint x="660" y="780" as="targetPoint" />
          </mxGeometry>
        </mxCell>
        <mxCell id="DSIdTfia2GyBseEBT6hQ-36" value="Yes" style="text;html=1;align=center;verticalAlign=middle;resizable=0;points=[];autosize=1;strokeColor=none;fillColor=none;" vertex="1" parent="1">
          <mxGeometry x="720" y="538" width="40" height="30" as="geometry" />
        </mxCell>
        <mxCell id="DSIdTfia2GyBseEBT6hQ-44" value="Check ID" style="rhombus;whiteSpace=wrap;html=1;" vertex="1" parent="1">
          <mxGeometry x="302" y="260" width="116" height="90" as="geometry" />
        </mxCell>
        <mxCell id="jgeN4zeaABX_XE4izrJk-1" value="" style="endArrow=classic;html=1;rounded=0;entryX=0.5;entryY=0;entryDx=0;entryDy=0;" edge="1" parent="1" target="DSIdTfia2GyBseEBT6hQ-15">
          <mxGeometry width="50" height="50" relative="1" as="geometry">
            <mxPoint x="360" y="350" as="sourcePoint" />
            <mxPoint x="410" y="300" as="targetPoint" />
          </mxGeometry>
        </mxCell>
        <mxCell id="jgeN4zeaABX_XE4izrJk-2" value="" style="endArrow=classic;html=1;rounded=0;entryX=0.5;entryY=0;entryDx=0;entryDy=0;" edge="1" parent="1" target="DSIdTfia2GyBseEBT6hQ-44">
          <mxGeometry width="50" height="50" relative="1" as="geometry">
            <mxPoint x="360" y="200" as="sourcePoint" />
            <mxPoint x="410" y="150" as="targetPoint" />
          </mxGeometry>
        </mxCell>
        <mxCell id="jgeN4zeaABX_XE4izrJk-5" value="" style="endArrow=classic;html=1;rounded=0;exitX=0.5;exitY=1;exitDx=0;exitDy=0;" edge="1" parent="1" source="DSIdTfia2GyBseEBT6hQ-17">
          <mxGeometry width="50" height="50" relative="1" as="geometry">
            <mxPoint x="60" y="800" as="sourcePoint" />
            <mxPoint x="360" y="640" as="targetPoint" />
          </mxGeometry>
        </mxCell>
        <mxCell id="jgeN4zeaABX_XE4izrJk-6" value="update date and&amp;nbsp;&lt;br&gt;time and&lt;br&gt;details&lt;br&gt;of Book" style="shape=parallelogram;perimeter=parallelogramPerimeter;whiteSpace=wrap;html=1;fixedSize=1;" vertex="1" parent="1">
          <mxGeometry x="298" y="640" width="120" height="60" as="geometry" />
        </mxCell>
        <mxCell id="jgeN4zeaABX_XE4izrJk-7" value="" style="endArrow=classic;html=1;rounded=0;exitX=0.5;exitY=1;exitDx=0;exitDy=0;" edge="1" parent="1" source="jgeN4zeaABX_XE4izrJk-6">
          <mxGeometry width="50" height="50" relative="1" as="geometry">
            <mxPoint x="370" y="790" as="sourcePoint" />
            <mxPoint x="360" y="750" as="targetPoint" />
          </mxGeometry>
        </mxCell>
        <mxCell id="jgeN4zeaABX_XE4izrJk-8" value="Keep the ID&amp;nbsp;&lt;br&gt;at the Basket" style="shape=parallelogram;perimeter=parallelogramPerimeter;whiteSpace=wrap;html=1;fixedSize=1;" vertex="1" parent="1">
          <mxGeometry x="298" y="750" width="120" height="60" as="geometry" />
        </mxCell>
        <mxCell id="jgeN4zeaABX_XE4izrJk-9" value="" style="endArrow=classic;html=1;rounded=0;exitX=0.5;exitY=1;exitDx=0;exitDy=0;" edge="1" parent="1" source="jgeN4zeaABX_XE4izrJk-8">
          <mxGeometry width="50" height="50" relative="1" as="geometry">
            <mxPoint x="330" y="880" as="sourcePoint" />
            <mxPoint x="360" y="860" as="targetPoint" />
          </mxGeometry>
        </mxCell>
        <mxCell id="jgeN4zeaABX_XE4izrJk-10" value="Thankyou" style="shape=parallelogram;perimeter=parallelogramPerimeter;whiteSpace=wrap;html=1;fixedSize=1;" vertex="1" parent="1">
          <mxGeometry x="300" y="860" width="120" height="60" as="geometry" />
        </mxCell>
        <mxCell id="jgeN4zeaABX_XE4izrJk-11" value="" style="endArrow=classic;html=1;rounded=0;exitX=0.5;exitY=1;exitDx=0;exitDy=0;" edge="1" parent="1" source="jgeN4zeaABX_XE4izrJk-10">
          <mxGeometry width="50" height="50" relative="1" as="geometry">
            <mxPoint x="140" y="1040" as="sourcePoint" />
            <mxPoint x="360" y="970" as="targetPoint" />
          </mxGeometry>
        </mxCell>
        <mxCell id="jgeN4zeaABX_XE4izrJk-13" value="stop" style="ellipse;whiteSpace=wrap;html=1;" vertex="1" parent="1">
          <mxGeometry x="302" y="970" width="120" height="80" as="geometry" />
        </mxCell>
      </root>
    </mxGraphModel>
  </diagram>
</mxfile>
